Coordinates
version=1
nRows=8
nColumns=36
inDegrees=yes

Units are S.I. units (second, meters, Newtons, ...)
If the header above contains a line with 'inDegrees', this indicates whether rotational values are in degrees (yes) or radians (no).

endheader
time	pelvis_tilt	pelvis_list	pelvis_rotation	pelvis_tx	pelvis_ty	pelvis_tz	hip_flexion_r	hip_adduction_r	hip_rotation_r	knee_angle_r	knee_angle_r_beta	ankle_angle_r	subtalar_angle_r	mtp_angle_r	hip_flexion_l	hip_adduction_l	hip_rotation_l	knee_angle_l	knee_angle_l_beta	ankle_angle_l	subtalar_angle_l	mtp_angle_l	lumbar_extension	lumbar_bending	lumbar_rotation	arm_flex_r	arm_add_r	arm_rot_r	elbow_flex_r	pro_sup_r	arm_flex_l	arm_add_l	arm_rot_l	elbow_flex_l	pro_sup_l
      0.00000000	     -0.83487725	     -0.11513422	     -7.76078289	      0.63595099	      0.94226569	      0.09650849	     -3.61165066	      0.30190686	     -3.17665120	      3.47516228	      0.06065302	      4.52414521	     -3.60996434	     -6.97397038	     -1.86776921	     -4.34988557	     -0.04351308	      6.43890799	      0.11238014	      3.29575713	     -7.18870298	     -6.97397038	      2.60769790	      1.14427067	      0.54246069	     26.95049801	    -12.73503784	     46.51774922	    126.75945267	     68.22473762	     23.13318703	     -1.80996762	     75.09878838	    129.58262420	     89.13319058
      0.01666670	     -0.46850698	     -0.30169383	     -7.69411136	      0.63624854	      0.93930934	      0.09503718	     -4.04521413	      0.54185423	     -3.38808904	      3.25211304	      0.05676008	      6.10532743	     -4.30590885	     -7.14347537	     -2.97549257	     -4.49563224	     -0.60871397	      4.97416631	      0.08681558	      4.21016269	     -6.81990643	     -7.14347537	      0.50737029	      2.07331616	      2.16761308	     28.70714942	    -16.73039661	     51.97117759	    132.18342126	     84.45049868	     24.19570572	     -2.83795798	     72.75154431	    134.37107768	     99.44952214
      0.03333330	     -0.61387485	     -0.27975890	     -7.81541207	      0.63656141	      0.93978699	      0.09506469	     -3.70487907	      0.71929676	     -2.94525667	      3.74987918	      0.06544774	      6.54365969	     -5.00750554	     -7.24494317	     -3.33963195	     -4.51039565	     -1.02750959	      4.05493646	      0.07077199	      4.66622114	     -6.36906556	     -7.24494317	      0.86851618	      2.19455621	      0.81602815	     30.20694775	    -14.51470242	     51.94541677	    130.48033467	     88.25086637	     23.53029762	     -3.12441033	     70.70165618	    135.16704333	    103.25177897
      0.05000000	     -0.89800563	     -0.21634235	     -7.36056601	      0.63605805	      0.94052222	      0.09466293	     -3.24388981	      0.83827470	     -3.77294678	      4.27277502	      0.07457399	      7.32748736	     -5.16983615	     -7.32048524	     -3.19373577	     -4.57838010	     -1.21470427	      3.65679771	      0.06382316	      5.18892161	     -5.66545667	     -7.32048524	      1.20941567	      2.12078335	     -0.20064952	     30.56500759	    -12.73726108	     52.12733223	    129.17926916	     92.58506893	     23.64875735	     -3.04143648	     69.38463360	    135.28183710	    104.73481380
      0.06666670	     -0.91349460	     -0.08869972	     -7.18158591	      0.63661695	      0.93739796	      0.09481098	     -2.99729579	      0.84277706	     -4.06959544	      4.80329677	      0.08383334	      8.12741762	     -5.73326422	     -7.40626183	     -3.21950914	     -4.55345097	     -1.54012091	      3.56924622	      0.06229510	      5.61306763	     -5.13102553	     -7.40626183	      1.43409923	      1.93464187	     -1.14430308	     30.99018906	    -10.98300893	     53.30206062	    128.23715864	     92.69413843	     24.14486167	     -2.78021415	     66.32783171	    134.50234089	    102.85378037
      0.08333330	     -0.84121469	     -0.01796148	     -7.13970307	      0.63605929	      0.93953361	      0.09496415	     -2.89916323	      0.85851389	     -4.16721685	      5.29086523	      0.09234302	      8.65721176	     -6.43706550	     -7.42372531	     -3.37902464	     -4.56096429	     -1.98168227	      3.46918673	      0.06054873	      5.89903979	     -4.46024292	     -7.42372531	      1.53030987	      1.83752649	     -1.44884346	     30.71309528	     -9.85855278	     53.95950673	    127.77073576	     90.14392055	     24.36518839	     -2.51292610	     64.10477953	    133.64408220	     99.68223391
      0.10000000	     -0.77793593	      0.01919863	     -7.03482699	      0.63683725	      0.93941798	      0.09517190	     -2.85957806	      0.88967885	     -4.51740241	      5.60850089	      0.09788681	      9.05430008	     -6.71115476	     -7.46329127	     -3.45266451	     -4.59834360	     -2.23225962	      3.46715512	      0.06051327	      5.86845081	     -4.16634036	     -7.46329127	      1.53867031	      1.93579266	     -2.21585856	     31.32078284	     -8.88787022	     55.40725237	    126.83562724	     91.38403565	     24.30867151	     -2.64803288	     62.34307390	    133.33824972	     98.66343097
      0.11666670	     -0.75447156	      0.03600065	     -6.89415463	      0.63633097	      0.93896841	      0.09493269	     -2.81617385	      0.93341728	     -4.71885119	      5.84128668	      0.10194969	      9.34529874	     -6.96122004	     -7.47566802	     -3.45219717	     -4.66122053	     -2.40159398	      3.53326596	      0.06166712	      5.78267376	     -3.97204921	     -7.47566802	      1.61836386	      1.96450838	     -2.65927336	     31.37471827	     -8.27930411	     55.91582370	    126.36519353	     89.97827401	     24.47192531	     -2.69893039	     61.70831553	    133.38754292	     96.48758838
